# WaveFront *.obj file (generated by Cinema 4D)

v -100.000000 -100.000000 100.000000
v -100.000000 100.000000 100.000000
v 100.000000 -100.000000 100.000000
v 100.000000 100.000000 100.000000
v 100.000000 -100.000000 -100.000000
v 100.000000 100.000000 -100.000000
v -100.000000 -100.000000 -100.000000
v -100.000000 100.000000 -100.000000
v -66.400000 -66.400000 100.000000
v -66.400000 66.400000 100.000000
v 66.400000 -66.400000 100.000000
v 66.400000 66.400000 100.000000
v 100.000000 -66.400000 66.400000
v 100.000000 66.400000 66.400000
v 100.000000 -66.400000 -66.400000
v 100.000000 66.400000 -66.400000
v -66.400000 -66.400000 209.000000
v -66.400000 66.400000 209.000000
v 66.400000 -66.400000 209.000000
v 66.400000 66.400000 209.000000
v 209.000000 -66.400000 66.400000
v 209.000000 66.400000 66.400000
v 209.000000 -66.400000 -66.400000
v 209.000000 66.400000 -66.400000
# 24 vertices

vn 0.000000 0.000000 1.000000
vn 1.000000 0.000000 0.000000
vn 0.000000 0.000000 -1.000000
vn -1.000000 0.000000 0.000000
vn 0.000000 1.000000 0.000000
vn 0.000000 -1.000000 0.000000
# 6 normals

vt 0.277184 0.446278 0.000000
vt 0.277184 0.553722 0.000000
vt 0.384628 0.553722 0.000000
vt 0.384628 0.446278 0.000000
vt 0.615372 0.446278 0.000000
vt 0.615372 0.553722 0.000000
vt 0.722816 0.553722 0.000000
vt 0.722816 0.446278 0.000000
vt 0.838188 0.419094 0.000000
vt 0.838188 0.580906 0.000000
vt 1.000000 0.580906 0.000000
vt 1.000000 0.419094 0.000000
vt -0.000000 0.419094 0.000000
vt -0.000000 0.580906 0.000000
vt 0.161812 0.580906 0.000000
vt 0.161812 0.419094 0.000000
vt 0.250000 0.669094 0.000000
vt 0.250000 0.830906 0.000000
vt 0.411812 0.830906 0.000000
vt 0.411812 0.669094 0.000000
vt 0.250000 0.169094 0.000000
vt 0.250000 0.330906 0.000000
vt 0.411812 0.330906 0.000000
vt 0.411812 0.169094 0.000000
vt 0.250000 0.419094 0.000000
vt 0.250000 0.580906 0.000000
vt 0.411812 0.580906 0.000000
vt 0.411812 0.419094 0.000000
vt 0.588188 0.419094 0.000000
vt 0.588188 0.580906 0.000000
vt 0.750000 0.580906 0.000000
vt 0.750000 0.419094 0.000000
vt 0.250000 0.446278 0.000000
vt 0.161812 0.446278 0.000000
vt 0.161812 0.553722 0.000000
vt 0.250000 0.553722 0.000000
vt 0.277184 0.580906 0.000000
vt 0.277184 0.669094 0.000000
vt 0.384628 0.669094 0.000000
vt 0.384628 0.580906 0.000000
vt 0.500000 0.553722 0.000000
vt 0.588188 0.553722 0.000000
vt 0.588188 0.446278 0.000000
vt 0.500000 0.446278 0.000000
vt 0.384628 0.419094 0.000000
vt 0.384628 0.330906 0.000000
vt 0.277184 0.330906 0.000000
vt 0.277184 0.419094 0.000000
vt 0.411812 0.446278 0.000000
vt 0.411812 0.553722 0.000000
vt 0.500000 0.696278 0.000000
vt 0.411812 0.696278 0.000000
vt 0.411812 0.803722 0.000000
vt 0.500000 0.803722 0.000000
vt 0.750000 0.553722 0.000000
vt 0.838188 0.553722 0.000000
vt 0.838188 0.446278 0.000000
vt 0.750000 0.446278 0.000000
vt 0.500000 0.196278 0.000000
vt 0.411812 0.196278 0.000000
vt 0.411812 0.303722 0.000000
vt 0.500000 0.303722 0.000000
# 62 texture coordinates

o W?rfel
usemtl default
f 19/4/1 20/3/1 18/2/1 17/1/1
f 23/8/2 24/7/2 22/6/2 21/5/2
f 7/12/3 8/11/3 6/10/3 5/9/3
f 1/16/4 2/15/4 8/14/4 7/13/4
f 4/20/5 6/19/5 8/18/5 2/17/5
f 5/24/6 3/23/6 1/22/6 7/21/6
f 10/2/1 2/26/1 1/25/1 9/1/1
f 12/3/1 4/27/1 2/26/1 10/2/1
f 11/4/1 3/28/1 4/27/1 12/3/1
f 9/1/1 1/25/1 3/28/1 11/4/1
f 14/6/2 4/30/2 3/29/2 13/5/2
f 16/7/2 6/31/2 4/30/2 14/6/2
f 15/8/2 5/32/2 6/31/2 16/7/2
f 13/5/2 3/29/2 5/32/2 15/8/2
f 18/36/4 10/35/4 9/34/4 17/33/4
f 20/40/5 12/39/5 10/38/5 18/37/5
f 19/44/2 11/43/2 12/42/2 20/41/2
f 17/48/6 9/47/6 11/46/6 19/45/6
f 22/41/1 14/50/1 13/49/1 21/44/1
f 24/54/5 16/53/5 14/52/5 22/51/5
f 23/58/3 15/57/3 16/56/3 24/55/3
f 21/62/6 13/61/6 15/60/6 23/59/6

